<?xml version="1.0" encoding="UTF-8"?>
<svg width="596px" height="132px" viewBox="0 0 596 132" version="1.1" xmlns="http://www.w3.org/2000/svg" xmlns:xlink="http://www.w3.org/1999/xlink">
    <!-- Generator: Sketch 45 (43475) - http://www.bohemiancoding.com/sketch -->
    <title>Group 2</title>
    <desc>Created with Sketch.</desc>
    <defs>
        <linearGradient x1="6.97899823%" y1="14.1553643%" x2="59.392506%" y2="55.6016451%" id="linearGradient-1">
            <stop stop-color="#F5515F" offset="0%"></stop>
            <stop stop-color="#9F041B" offset="100%"></stop>
        </linearGradient>
        <radialGradient cx="39.7467436%" cy="109.338984%" fx="39.7467436%" fy="109.338984%" r="67.8456424%" gradientTransform="translate(0.397467,1.093390),scale(0.990389,1.000000),rotate(-103.095301),translate(-0.397467,-1.093390)" id="radialGradient-2">
            <stop stop-color="#FFFFFF" offset="0%"></stop>
            <stop stop-color="#FFFFFF" stop-opacity="0" offset="100%"></stop>
        </radialGradient>
        <radialGradient cx="39.7467436%" cy="109.338984%" fx="39.7467436%" fy="109.338984%" r="67.8456424%" gradientTransform="translate(0.397467,1.093390),scale(0.986876,1.000000),rotate(-103.140310),translate(-0.397467,-1.093390)" id="radialGradient-3">
            <stop stop-color="#FFFFFF" offset="0%"></stop>
            <stop stop-color="#FFFFFF" stop-opacity="0" offset="100%"></stop>
        </radialGradient>
        <radialGradient cx="39.7467436%" cy="109.338984%" fx="39.7467436%" fy="109.338984%" r="67.8456424%" gradientTransform="translate(0.397467,1.093390),scale(0.987747,1.000000),rotate(-103.129123),translate(-0.397467,-1.093390)" id="radialGradient-4">
            <stop stop-color="#FFFFFF" offset="0%"></stop>
            <stop stop-color="#FFFFFF" stop-opacity="0" offset="100%"></stop>
        </radialGradient>
        <radialGradient cx="39.7467436%" cy="109.338984%" fx="39.7467436%" fy="109.338984%" r="67.8456424%" gradientTransform="translate(0.397467,1.093390),scale(0.989143,1.000000),rotate(-103.111227),translate(-0.397467,-1.093390)" id="radialGradient-5">
            <stop stop-color="#FFFFFF" offset="0%"></stop>
            <stop stop-color="#FFFFFF" stop-opacity="0" offset="100%"></stop>
        </radialGradient>
        <radialGradient cx="39.7467436%" cy="109.338984%" fx="39.7467436%" fy="109.338984%" r="67.8456424%" gradientTransform="translate(0.397467,1.093390),scale(0.994382,1.000000),rotate(-103.044517),translate(-0.397467,-1.093390)" id="radialGradient-6">
            <stop stop-color="#FFFFFF" offset="0%"></stop>
            <stop stop-color="#FFFFFF" stop-opacity="0" offset="100%"></stop>
        </radialGradient>
        <radialGradient cx="39.7467436%" cy="109.338984%" fx="39.7467436%" fy="109.338984%" r="67.8456424%" gradientTransform="translate(0.397467,1.093390),scale(0.999047,1.000000),rotate(-102.985682),translate(-0.397467,-1.093390)" id="radialGradient-7">
            <stop stop-color="#FFFFFF" offset="0%"></stop>
            <stop stop-color="#FFFFFF" stop-opacity="0" offset="100%"></stop>
        </radialGradient>
    </defs>
    <g id="Page-1" stroke="none" stroke-width="1" fill="none" fill-rule="evenodd">
        <g id="Artboard" transform="translate(-10.000000, -10.000000)">
            <g id="Group-2">
                <g id="Group">
                    <path d="M48.9318633,83.7810571 L21.1805724,71.3911885 C21.3958692,71.2201583 21.6718425,71.0018762 21.9298266,70.8051087 C21.6713896,71.0002247 21.4210973,71.1950547 21.1792579,71.3892281 C12.126074,67.237076 9.00419083,58.5536129 10.3809698,51.0116974 C12.850339,37.4846353 30.122604,23.8047061 49.5774702,31.2223562 L52.7342373,61.4559213 C52.7361577,61.4560116 52.7380782,61.456102 52.7399987,61.4561925 L49.5903334,31.2097163 C49.962073,31.3589976 50.4949258,31.5735988 50.8637383,31.7404425 C52.8953772,32.6455767 54.8342269,33.6760278 56.6755771,34.8198287 C54.1709936,33.2385242 51.7419794,32.0307319 49.575237,31.203776 C48.6445143,21.2874127 54.6042922,14.4719826 61.8241721,11.8933504 C74.7736361,7.26835579 95.3366348,14.8275607 98.6401945,35.3847941 L98.4831975,35.5005778 L98.6359514,35.3944861 C98.6361629,35.3959238 98.6363741,35.397368 98.636585,35.3988188 C106.757303,29.6402769 115.663686,31.64923 121.505232,36.6111924 C131.985327,45.51326 135.222619,67.417946 119.071313,80.5575293 L119.048074,80.5470125 C119.042702,80.5512393 119.037331,80.5554651 119.031959,80.5596902 C128.067241,84.7157313 131.240347,93.1999493 129.864754,100.73537 C127.395385,114.262432 110.072737,127.955071 90.6178709,120.537421 L87.6331267,90.3748889 C89.6497913,90.4753073 91.62681,90.4400209 93.551811,90.2901394 C91.5736737,90.4394572 89.590297,90.4664715 87.6132695,90.3728488 L90.6098883,120.54681 C90.6117901,120.547541 90.6136917,120.548272 90.615593,120.549002 C91.5463158,130.465365 85.6763067,137.567793 78.4564269,140.146426 C65.5099647,144.770348 45.0489047,136.475236 41.7381563,115.92845 C41.7361941,115.923105 41.7352965,115.916996 41.7343996,115.910888 C33.617237,121.658526 24.634905,120.305946 18.7966511,115.34678 C8.31655628,106.444712 5.03127342,84.5401681 21.1825799,71.4005847 L48.9313454,83.7818694 Z M48.4905769,84.4861331 C47.6556585,85.8453238 46.8871892,87.2432994 46.1886148,88.6756618 C46.871798,87.2632728 47.6370497,85.8628224 48.4905769,84.4861331 Z M41.3193424,109.33503 C41.2985406,110.926644 41.3623721,112.439584 41.4975439,113.848534 C41.3667421,112.33399 41.3081924,110.8284 41.3193425,109.335023 Z M89.660143,120.163264 C88.3406642,119.605205 86.9431787,118.911453 85.5057038,118.088311 C86.7922831,118.810769 88.122665,119.479737 89.4953841,120.091526 C89.5503037,120.115742 89.6052234,120.13964 89.660143,120.163264 Z M71.1955018,105.764142 C69.363591,103.410131 67.7530013,100.891978 66.3772799,98.2437759 L66.374163,98.246013 C67.7339297,100.958285 69.3772651,103.470335 71.1955018,105.764142 Z M108.713167,86.5980374 C112.352013,85.0696673 115.485466,83.2353953 117.943172,81.3858984 C115.008649,83.4987812 111.912695,85.2333875 108.713167,86.5980374 Z M98.7086206,36.1765146 C98.733756,36.5242742 98.7566076,36.8825106 98.7800924,37.097005 C98.808773,37.3708652 98.8350855,37.6444545 98.8590449,37.9177537 C98.8145333,37.3221249 98.7635448,36.7411344 98.7086206,36.1765146 Z M98.9857944,44.4966188 C98.9050092,46.1317576 98.7407259,47.7502308 98.4963644,49.3476509 C98.5119274,49.250505 98.5271908,49.1534403 98.5421576,49.0564564 C98.7813022,47.5068128 98.9202057,45.980747 98.9857944,44.4966188 Z M88.8419917,42.6108711 L73.9762205,53.5742293 C73.9771189,53.5759566 73.9780172,53.5776839 73.9789153,53.5794113 L88.8419917,42.6108711 Z M73.4582963,52.6047347 C72.0207148,49.9838699 70.34929,47.4978932 68.4575353,45.1811371 C70.30431,47.4179162 72.0046517,49.8937602 73.4582963,52.6047347 Z M22.2727416,70.5495732 C22.8199516,70.15244 23.3728839,69.7685209 23.9311521,69.3977609 C23.3488818,69.7802964 22.7952951,70.1651757 22.2727416,70.5495732 Z M42.3765522,62.0831719 C45.4100696,61.5675211 48.4757379,61.3466257 51.5298294,61.414269 C48.4285483,61.2887233 45.3484955,61.5465181 42.3765544,62.0831715 Z" id="change-this-to-change-color" fill="url(#linearGradient-1)"></path>
                    <path d="M52.6671195,61.932659 L49.5075602,31.672351 C30.052694,24.254701 12.780429,37.9346302 10.3110597,51.4616923 C8.93428081,59.0036078 12.0561639,67.6870708 21.1093478,71.839223 C27.5619411,66.6584214 40.0320581,61.0102186 52.6671195,61.932659 Z" id="Path-2-Copy-11" fill="url(#radialGradient-2)" opacity="0.649999976"></path>
                    <path d="M50.2754328,107.842032 L47.1231186,77.6160497 C27.6682524,70.1983997 10.3410023,83.9958101 7.87163306,97.5228722 C6.49485413,105.064788 9.82130905,113.527789 18.874493,117.679941 C25.3159536,112.478334 37.0583194,107.181504 50.2754328,107.842032 Z" id="Path-2-Copy-6" fill="url(#radialGradient-3)" opacity="0.649999976" transform="translate(28.923966, 96.608697) rotate(300.000000) translate(-28.923966, -96.608697) "></path>
                    <path d="M89.2135473,133.788098 L86.228363,103.616434 C66.7734968,96.1987839 49.3516854,109.774184 46.8823161,123.301246 C45.5055372,130.843161 48.721416,139.477953 57.7745999,143.630105 C64.1645863,138.457224 76.4066839,133.032097 89.2135473,133.788098 Z" id="Path-2-Copy-7" fill="url(#radialGradient-4)" opacity="0.649999976" transform="translate(67.895193, 122.572968) rotate(240.000000) translate(-67.895193, -122.572968) "></path>
                    <path d="M130.539229,112.833623 L127.554485,82.6710912 C108.099618,75.2534412 90.7769705,88.9460797 88.3076013,102.473142 C86.9308224,110.015057 90.1105874,118.507406 99.1637713,122.659558 C105.419891,117.522602 117.099103,112.164382 130.539229,112.833623 Z" id="Path-2-Copy-8" fill="url(#radialGradient-5)" opacity="0.649999976" transform="translate(109.269614, 101.620860) rotate(180.000000) translate(-109.269614, -101.620860) "></path>
                    <path d="M133.294678,66.7238887 L130.306027,36.5213143 C110.851161,29.1036643 93.4997926,42.8595845 91.0304234,56.3866467 C89.6536445,63.9285621 92.3688428,72.6488267 101.422027,76.8009788 C104.58819,74.4979245 108.571467,71.8833469 113.289876,70.0506208 C119.128279,67.782866 125.855632,66.3971897 133.294678,66.7238887 Z" id="Path-2-Copy-9" fill="url(#radialGradient-6)" opacity="0.649999976" transform="translate(111.993847, 55.619808) rotate(120.000000) translate(-111.993847, -55.619808) "></path>
                    <path d="M94.2577043,40.8928126 L90.8357822,10.4260372 C71.380916,3.00838713 54.5529532,17.0368639 52.0835839,30.563926 C50.706805,38.1058415 53.6292517,46.6748756 62.6824356,50.8270277 C68.9831428,45.7047163 80.9346686,40.1323028 94.2577043,40.8928126 Z" id="Path-2-Copy-10" fill="url(#radialGradient-7)" opacity="0.649999976" transform="translate(73.008886, 29.598462) rotate(60.000000) translate(-73.008886, -29.598462) "></path>
                    <text id="美国华人生活网" font-family="PingFangSC-Light, PingFang SC" font-size="64" font-weight="300" fill-opacity="0.881453804" fill="#4A4A4A">
                        <tspan x="164" y="95">美国华人生活网</tspan>
                    </text>
                </g>
                <text id="美国网络集团-|-United-Netw" font-family="PingFangSC-Semibold, PingFang SC" font-size="14" font-weight="500" fill-opacity="0.881453804" fill="#4A4A4A">
                    <tspan x="274" y="127">美国网络集团 | United Networks Group</tspan>
                </text>
            </g>
        </g>
    </g>
</svg>